HIERARCHY
ROOT joint_Root
{
	OFFSET 0.0 0.0 0.0
	CHANNELS 6 Xposition Yposition Zposition Zrotation Xrotation Yrotation 
	JOINT Hips
	{
		OFFSET -17.1583 93.1646 452.98
		CHANNELS 6 Xposition Yposition Zposition Zrotation Xrotation Yrotation 
		JOINT Spine
		{
			OFFSET 15.7357 0.0 0.0
			CHANNELS 6 Xposition Yposition Zposition Zrotation Xrotation Yrotation 
			JOINT Chest
			{
				OFFSET 8.98455 -0.406207 0.0
				CHANNELS 6 Xposition Yposition Zposition Zrotation Xrotation Yrotation 
				JOINT Neck
				{
					OFFSET 16.3773 0.0 0.0
					CHANNELS 6 Xposition Yposition Zposition Zrotation Xrotation Yrotation 
					JOINT Head
					{
						OFFSET 6.45672 0.0 0.0
						CHANNELS 6 Xposition Yposition Zposition Zrotation Xrotation Yrotation 
						End Site
						{
							OFFSET 0.0 0.0 0.0
						}
					}
				}
				JOINT Shoulder_L
				{
					OFFSET 12.9942 -0.242716 4.98039
					CHANNELS 6 Xposition Yposition Zposition Zrotation Xrotation Yrotation 
					JOINT UpperArm_L
					{
						OFFSET 5.34809 0.0 0.0
						CHANNELS 6 Xposition Yposition Zposition Zrotation Xrotation Yrotation 
						JOINT LowerArm_L
						{
							OFFSET 24.3286 1.87007e-05 0.0
							CHANNELS 6 Xposition Yposition Zposition Zrotation Xrotation Yrotation 
							JOINT Hand_L
							{
								OFFSET 22.2916 0.0 0.0
								CHANNELS 6 Xposition Yposition Zposition Zrotation Xrotation Yrotation 
								End Site
								{
									OFFSET 0.0 0.0 0.0
								}
							}
						}
					}
				}
				JOINT Shoulder_R
				{
					OFFSET 12.9945 -0.242716 -4.98039
					CHANNELS 6 Xposition Yposition Zposition Zrotation Xrotation Yrotation 
					JOINT UpperArm_R
					{
						OFFSET -5.34813 0.0 0.0
						CHANNELS 6 Xposition Yposition Zposition Zrotation Xrotation Yrotation 
						JOINT LowerArm_R
						{
							OFFSET -24.3289 0.000322201 0.0
							CHANNELS 6 Xposition Yposition Zposition Zrotation Xrotation Yrotation 
							JOINT Hand_R
							{
								OFFSET -22.2915 -0.000108084 0.0
								CHANNELS 6 Xposition Yposition Zposition Zrotation Xrotation Yrotation 
								End Site
								{
									OFFSET 0.0 0.0 0.0
								}
							}
						}
					}
				}
			}
		}
		JOINT UpperLeg_L
		{
			OFFSET -2.19248 -6.46944 0.0
			CHANNELS 6 Xposition Yposition Zposition Zrotation Xrotation Yrotation 
			JOINT LowerLeg_L
			{
				OFFSET 39.0811 0.0 -1.23785e-05
				CHANNELS 6 Xposition Yposition Zposition Zrotation Xrotation Yrotation 
				JOINT Foot_L
				{
					OFFSET 40.9854 0.0 -1.26872e-05
					CHANNELS 6 Xposition Yposition Zposition Zrotation Xrotation Yrotation 
					JOINT Toes_L
					{
						OFFSET 11.7543 0.0 0.0
						CHANNELS 6 Xposition Yposition Zposition Zrotation Xrotation Yrotation 
						End Site
						{
							OFFSET 0.0 0.0 0.0
						}
					}
				}
			}
		}
		JOINT UpperLeg_R
		{
			OFFSET -2.19251 6.46944 0.0
			CHANNELS 6 Xposition Yposition Zposition Zrotation Xrotation Yrotation 
			JOINT LowerLeg_R
			{
				OFFSET -39.0811 -0.00228153 -0.0401928
				CHANNELS 6 Xposition Yposition Zposition Zrotation Xrotation Yrotation 
				JOINT Foot_R
				{
					OFFSET -40.9854 0.0 0.0
					CHANNELS 6 Xposition Yposition Zposition Zrotation Xrotation Yrotation 
					JOINT Toes_R
					{
						OFFSET -11.7543 0.0 0.0
						CHANNELS 6 Xposition Yposition Zposition Zrotation Xrotation Yrotation 
						End Site
						{
							OFFSET 0.0 0.0 0.0
						}
					}
				}
			}
		}
	}
}
MOTION
Frames:	8
Frame Time:	0.0333333
0.000000 0.000000 0.000000 0.000000 0.000000 -0.000000 -3.642860 91.914800 0.431577 84.246800 -2.216040 1.387420 15.735700 0.000005 -0.000001 90.053200 87.642500 -87.015700 8.984550 -0.406207 -0.000000 -3.036230 -0.281734 6.068410 16.377300 -0.000001 -0.000001 10.100300 6.424850 -8.791970 6.456720 -0.000001 -0.000000 9.119210 6.272760 -19.876600 12.994200 -0.242716 4.980390 -92.939300 8.596450 -71.041800 5.348090 -0.000007 -0.000001 -70.176000 -13.969100 3.655500 24.328600 0.000019 0.000005 18.701000 -18.693700 -133.436000 22.291600 -0.000001 0.000005 57.936800 4.177360 21.651600 12.994500 -0.242716 -4.980390 88.612000 4.357480 -72.312300 -5.348130 -0.000001 -0.000004 -70.030900 30.284000 -4.909580 -24.328900 0.000322 -0.000009 2.203890 7.653230 -16.124900 -22.291500 -0.000108 -0.000004 0.475001 5.274260 0.782715 -2.192480 -6.469440 -0.000000 -171.291000 -1.659400 -5.126280 39.081100 -0.000007 -0.000012 0.327639 -0.627925 27.555300 40.985400 -0.000006 -0.000013 -0.100341 9.369800 -76.431700 11.754300 -0.000000 0.000003 0.000170 0.164708 -9.896490 -2.192510 6.469440 -0.000001 -169.810000 5.859350 -177.729000 -39.081100 -0.002282 -0.040193 0.109599 -0.419202 14.224800 -40.985400 0.000008 0.000006 5.025490 0.288085 -71.064900 -11.754300 -0.000006 -0.000006 -0.010903 0.277932 -5.279840
0.000000 0.000000 0.000000 0.000000 0.000000 -0.000000 -3.603140 91.912600 0.418681 84.225900 -2.189340 1.405940 15.735700 0.000005 -0.000001 89.926700 87.633200 -86.904800 8.984550 -0.406207 -0.000000 -3.017550 -0.290201 6.036850 16.377300 -0.000001 -0.000001 10.121800 6.358090 -8.771310 6.456720 -0.000001 -0.000000 9.128780 6.140310 -19.762400 12.994200 -0.242716 4.980390 -92.952400 8.612400 -70.996100 5.348090 -0.000007 -0.000001 -69.841500 -11.515200 4.157080 24.328600 0.000019 0.000005 27.718500 -26.782700 -130.616000 22.291600 -0.000001 0.000005 59.927000 4.381280 18.521900 12.994500 -0.242716 -4.980390 88.606500 4.372090 -72.302800 -5.348130 -0.000001 -0.000004 -70.083300 30.243100 -4.914600 -24.328900 0.000322 -0.000009 2.210360 7.669330 -16.137800 -22.291500 -0.000108 -0.000004 0.481532 5.274350 0.780473 -2.192480 -6.469440 -0.000000 -171.312000 -1.620290 -5.147730 39.081100 -0.000007 -0.000012 0.332425 -0.635872 27.600600 40.985400 -0.000006 -0.000013 -0.041276 9.337470 -76.430300 11.754300 -0.000000 0.000003 0.000261 0.163102 -9.961720 -2.192510 6.469440 -0.000001 -169.810000 5.845330 -177.751000 -39.081100 -0.002282 -0.040193 0.110660 -0.421935 14.271900 -40.985400 0.000008 0.000006 5.017470 0.258728 -71.059600 -11.754300 -0.000006 -0.000006 -0.010715 0.276570 -5.335590
0.000000 0.000000 0.000000 0.000000 0.000000 -0.000000 -3.565560 91.912400 0.399868 84.187700 -2.192300 1.441160 15.735700 0.000005 -0.000001 90.255500 87.626700 -87.236200 8.984550 -0.406207 -0.000000 -3.005410 -0.262425 6.032560 16.377300 -0.000001 -0.000001 10.195500 6.274020 -8.809810 6.456720 -0.000001 -0.000000 9.136980 5.973370 -19.664600 12.994200 -0.242716 4.980390 -92.972500 8.659480 -70.971700 5.348090 -0.000007 -0.000001 -69.562100 -9.705210 4.447770 24.328600 0.000019 0.000005 37.849400 -34.505600 -126.092000 22.291600 -0.000001 0.000005 61.639500 4.633610 14.334400 12.994500 -0.242716 -4.980390 88.606100 4.360420 -72.253700 -5.348130 -0.000001 -0.000004 -70.143200 30.196400 -4.885630 -24.328900 0.000322 -0.000009 2.231610 7.723450 -16.177400 -22.291500 -0.000108 -0.000004 0.509234 5.275040 0.761628 -2.192480 -6.469440 -0.000000 -171.315000 -1.658440 -5.130640 39.081100 -0.000007 -0.000012 0.338405 -0.646588 27.626900 40.985400 -0.000006 -0.000013 0.132022 9.294900 -76.495500 11.754300 -0.000000 0.000003 0.000167 0.164757 -9.894510 -2.192510 6.469440 -0.000001 -169.797000 5.811300 -177.719000 -39.081100 -0.002282 -0.040193 0.110448 -0.421323 14.264700 -40.985400 0.000008 0.000006 5.059630 0.231346 -71.077800 -11.754300 -0.000006 -0.000006 -0.011253 0.280443 -5.177080
0.000000 0.000000 0.000000 0.000000 0.000000 -0.000000 -3.526180 91.914300 0.382518 84.197200 -2.161500 1.443620 15.735700 0.000005 -0.000001 90.198400 87.636400 -87.180800 8.984550 -0.406207 -0.000000 -3.024670 -0.267559 6.028970 16.377300 -0.000001 -0.000001 10.270500 6.217440 -8.841730 6.456720 -0.000001 -0.000000 9.198290 5.846430 -19.706500 12.994200 -0.242716 4.980390 -93.004900 8.735920 -70.934000 5.348090 -0.000007 -0.000001 -69.250600 -8.805380 4.441240 24.328600 0.000019 0.000005 47.541400 -40.255600 -120.595000 22.291600 -0.000001 0.000005 64.013000 4.847630 10.408500 12.994500 -0.242716 -4.980390 88.602600 4.374110 -72.263100 -5.348130 -0.000001 -0.000004 -70.147700 30.145300 -4.809450 -24.328900 0.000322 -0.000009 2.214340 7.625910 -16.252100 -22.291500 -0.000108 -0.000004 0.544574 5.274650 0.772322 -2.192480 -6.469440 -0.000000 -171.359000 -1.582470 -5.159380 39.081100 -0.000007 -0.000012 0.339776 -0.648803 27.641700 40.985400 -0.000006 -0.000013 0.148632 9.248140 -76.501300 11.754300 -0.000000 0.000003 0.000120 0.165587 -9.860790 -2.192510 6.469440 -0.000001 -169.825000 5.841490 -177.762000 -39.081100 -0.002282 -0.040193 0.111919 -0.425542 14.315100 -40.985400 0.000008 0.000006 5.022140 0.220037 -71.076000 -11.754300 -0.000006 -0.000006 -0.010936 0.278169 -5.270160
0.000000 0.000000 0.000000 0.000000 0.000000 -0.000000 -3.489410 91.916300 0.353383 84.207100 -2.152290 1.467170 15.735700 0.000005 -0.000001 90.059900 87.637700 -87.039100 8.984550 -0.406207 -0.000000 -3.026910 -0.279361 6.035150 16.377300 -0.000001 -0.000001 10.353400 6.189380 -8.900880 6.456720 -0.000001 -0.000000 9.222760 5.802810 -19.767800 12.994200 -0.242716 4.980390 -93.040900 8.811330 -70.873600 5.348090 -0.000007 -0.000001 -68.880600 -8.446490 4.089080 24.328600 0.000019 0.000005 53.790600 -43.116100 -116.584000 22.291600 -0.000001 0.000005 65.695300 4.951290 8.338370 12.994500 -0.242716 -4.980390 88.598900 4.385460 -72.262100 -5.348130 -0.000001 -0.000004 -70.150200 30.153600 -4.815560 -24.328900 0.000322 -0.000009 2.223550 7.678130 -16.211600 -22.291500 -0.000108 -0.000004 0.543612 5.273910 0.792319 -2.192480 -6.469440 -0.000000 -171.398000 -1.541400 -5.167440 39.081100 -0.000007 -0.000012 0.338736 -0.646237 27.662800 40.985400 -0.000006 -0.000013 0.129205 9.210450 -76.500300 11.754300 -0.000000 0.000003 0.000247 0.163352 -9.951570 -2.192510 6.469440 -0.000001 -169.863000 5.875960 -177.788000 -39.081100 -0.002282 -0.040193 0.112834 -0.426942 14.385300 -40.985400 0.000008 0.000006 4.976010 0.235287 -71.115700 -11.754300 -0.000006 -0.000006 -0.010860 0.277620 -5.292630
0.000000 0.000000 0.000000 0.000000 0.000000 -0.000000 -3.469370 91.911200 0.333036 84.202500 -2.139050 1.540930 15.735700 0.000005 -0.000001 89.819700 87.626400 -86.774900 8.984550 -0.406207 -0.000000 -3.003570 -0.300857 6.082600 16.377300 -0.000001 -0.000001 10.420000 6.190600 -8.999240 6.456720 -0.000001 -0.000000 9.262970 5.774620 -19.858800 12.994200 -0.242716 4.980390 -93.062400 8.870910 -70.866600 5.348090 -0.000007 -0.000001 -68.702500 -8.645410 3.619080 24.328600 0.000019 0.000005 53.181400 -42.679800 -116.907000 22.291600 -0.000001 0.000005 65.073100 4.941980 8.530410 12.994500 -0.242716 -4.980390 88.587500 4.408750 -72.216100 -5.348130 -0.000001 -0.000004 -70.093000 30.208200 -4.853690 -24.328900 0.000322 -0.000009 2.194400 7.601800 -16.161400 -22.291500 -0.000108 -0.000004 0.493314 5.276520 0.721339 -2.192480 -6.469440 -0.000000 -171.407000 -1.539140 -5.121000 39.081100 -0.000007 -0.000012 0.340362 -0.648755 27.683900 40.985400 -0.000006 -0.000013 0.271613 9.216370 -76.500800 11.754300 -0.000000 0.000003 0.000311 0.162217 -9.997620 -2.192510 6.469440 -0.000001 -169.837000 5.757670 -177.746000 -39.081100 -0.002282 -0.040193 0.116315 -0.439782 14.408400 -40.985400 0.000008 0.000006 5.087360 0.065011 -71.121300 -11.754300 -0.000006 -0.000006 -0.010887 0.277818 -5.284510
0.000000 0.000000 0.000000 0.000000 0.000000 -0.000000 -3.452280 91.910400 0.303969 84.221500 -2.139320 1.623870 15.735700 0.000005 -0.000001 89.633400 87.608200 -86.564900 8.984550 -0.406207 -0.000000 -2.966660 -0.317756 6.129490 16.377300 -0.000001 -0.000001 10.506100 6.207100 -9.031420 6.456720 -0.000001 -0.000000 9.261050 5.808220 -20.027000 12.994200 -0.242716 4.980390 -93.065000 8.865020 -70.839700 5.348090 -0.000007 -0.000001 -68.905100 -9.506760 3.034790 24.328600 0.000019 0.000005 48.357200 -39.720200 -119.606000 22.291600 -0.000001 0.000005 63.205700 4.832030 10.708600 12.994500 -0.242716 -4.980390 88.569000 4.459660 -72.189300 -5.348130 -0.000001 -0.000004 -70.007500 30.210800 -4.868560 -24.328900 0.000322 -0.000009 2.190570 7.581480 -16.175400 -22.291500 -0.000108 -0.000004 0.543402 5.276230 0.729275 -2.192480 -6.469440 -0.000000 -171.430000 -1.561440 -5.079040 39.081100 -0.000007 -0.000012 0.341252 -0.649228 27.728400 40.985400 -0.000006 -0.000013 0.180049 9.270560 -76.501600 11.754300 -0.000000 0.000003 0.000238 0.163522 -9.944660 -2.192510 6.469440 -0.000001 -169.877000 5.821400 -177.689000 -39.081100 -0.002282 -0.040193 0.117912 -0.444996 14.439400 -40.985400 0.000008 0.000006 5.185570 0.108745 -71.174400 -11.754300 -0.000006 -0.000006 -0.011092 0.279289 -5.224300
0.000000 0.000000 0.000000 0.000000 0.000000 -0.000000 -3.445260 91.905600 0.276958 84.194600 -2.133270 1.646170 15.735700 0.000005 -0.000001 89.087400 87.609000 -85.977000 8.984550 -0.406207 -0.000000 -2.967180 -0.367229 6.212040 16.377300 -0.000001 -0.000001 10.546100 6.225070 -9.004060 6.456720 -0.000001 -0.000000 9.273540 5.903390 -20.164700 12.994200 -0.242716 4.980390 -93.057700 8.854680 -70.862100 5.348090 -0.000007 -0.000001 -69.307600 -11.015700 2.549410 24.328600 0.000019 0.000005 41.996300 -35.529100 -122.841000 22.291600 -0.000001 0.000005 60.275800 4.690460 13.330300 12.994500 -0.242716 -4.980390 88.550600 4.517460 -72.191300 -5.348130 -0.000001 -0.000004 -69.910400 30.168200 -4.855120 -24.328900 0.000322 -0.000009 2.180070 7.518780 -16.228400 -22.291500 -0.000108 -0.000004 0.524140 5.275850 0.739635 -2.192480 -6.469440 -0.000000 -171.428000 -1.557800 -5.078750 39.081100 -0.000007 -0.000012 0.350719 -0.666609 27.750700 40.985400 -0.000006 -0.000013 0.417369 9.220720 -76.579500 11.754300 -0.000000 0.000003 0.000098 0.165952 -9.845970 -2.192510 6.469440 -0.000001 -169.816000 5.692780 -177.706000 -39.081100 -0.002282 -0.040193 0.119802 -0.451428 14.467200 -40.985400 0.000008 0.000006 5.224140 -0.052433 -71.153200 -11.754300 -0.000006 -0.000006 -0.010913 0.278008 -5.276730
